<svg version="1.1" id="Layer_1" xmlns="http://www.w3.org/2000/svg" xmlns:xlink="http://www.w3.org/1999/xlink" x="0px" y="0px"
	 width="100%" viewBox="0 0 2000 1457" enable-background="new 0 0 2000 1457" xml:space="preserve">
<path fill="#4C6971" opacity="1.000000" stroke="none" 
	d="
M2001.000000,1270.000000 
	C2001.000000,1332.648193 2001.000000,1395.296387 2001.000000,1458.000000 
	C1597.970581,1458.000000 1194.941284,1458.000000 791.799805,1457.818604 
	C803.156738,1454.349731 814.924133,1451.840576 826.022583,1447.586426 
	C841.492615,1441.656250 854.818176,1432.160278 863.690308,1417.783203 
	C875.930176,1397.948486 875.429932,1370.687256 851.536499,1355.589111 
	C833.532715,1344.212646 814.048462,1336.138672 794.565125,1327.917358 
	C790.817078,1326.335693 787.225830,1324.010132 784.125610,1321.366943 
	C780.844055,1318.569214 780.939697,1314.855957 783.973511,1311.684814 
	C785.915222,1309.655029 788.086792,1307.791016 790.371399,1306.154175 
	C796.055237,1302.081909 802.153381,1298.538452 807.554260,1294.131958 
	C816.271790,1287.019653 825.717102,1280.338867 832.797058,1271.774536 
	C848.145691,1253.208130 853.327881,1231.501831 848.216614,1207.624268 
	C846.714722,1200.608154 848.123108,1199.343018 855.250977,1200.325195 
	C860.523254,1201.051880 865.880981,1201.313232 871.079346,1202.375732 
	C875.706055,1203.321167 876.878174,1201.597900 877.148315,1197.319702 
	C877.588013,1190.356689 878.449341,1183.407104 879.436401,1176.495239 
	C880.939941,1165.966309 881.043823,1166.211060 870.497803,1165.925659 
	C853.716736,1165.471680 836.882996,1165.355957 820.186462,1163.835205 
	C803.562500,1162.321045 787.470825,1157.009277 770.304504,1158.765015 
	C743.673645,1161.488770 721.860535,1172.723755 704.005249,1192.380859 
	C688.773499,1209.149780 682.153381,1228.664917 682.847168,1251.344360 
	C683.629761,1276.928101 700.736450,1299.121582 725.710938,1304.745605 
	C731.022278,1305.941528 736.533630,1306.230347 741.930664,1307.078003 
	C743.290466,1307.291382 744.564941,1308.047607 745.878540,1308.554443 
	C745.111755,1309.718384 744.478516,1311.004517 743.549133,1312.019775 
	C741.864746,1313.859863 740.105286,1315.658447 738.200134,1317.264526 
	C727.022888,1326.686890 729.603699,1341.593140 740.222107,1349.465820 
	C741.452271,1350.378052 742.559204,1351.456421 744.305481,1352.958740 
	C741.831482,1353.882568 740.313110,1354.469971 738.780762,1355.018555 
	C722.728149,1360.765015 707.125244,1367.277832 694.215271,1378.951538 
	C679.040222,1392.673340 675.220276,1412.473389 685.177917,1429.046021 
	C690.734314,1438.293579 698.846191,1445.136475 708.954895,1448.659180 
	C719.744690,1452.419067 730.966675,1454.938843 742.000000,1458.000000 
	C495.122650,1458.000000 248.245270,1458.000000 1.000000,1458.000000 
	C1.000000,1428.638306 1.000000,1399.275146 1.468657,1369.456055 
	C18.435366,1368.996460 34.934116,1368.907593 51.431019,1369.043335 
	C56.051498,1369.081421 58.246082,1367.454956 58.016953,1362.640015 
	C57.518692,1352.169800 57.194160,1341.691284 56.809006,1331.215698 
	C55.875160,1305.816772 54.974342,1280.416382 53.992355,1255.019409 
	C53.812653,1250.371826 56.091602,1248.961182 60.404026,1248.971558 
	C92.400024,1249.049194 124.396332,1248.989868 156.392456,1249.031372 
	C162.207291,1249.038940 163.045074,1249.836914 162.952652,1255.823486 
	C162.700989,1272.125366 162.400345,1288.428589 161.867813,1304.723022 
	C161.596497,1313.024536 160.643570,1321.301880 160.252487,1329.602051 
	C159.719971,1340.903931 159.415863,1352.216797 159.045441,1363.526001 
	C158.946121,1366.557739 159.935852,1368.885986 163.454102,1368.895630 
	C179.784409,1368.940186 196.115952,1369.007202 212.443085,1368.781128 
	C213.664749,1368.764160 215.825134,1366.563721 215.894333,1365.288452 
	C216.209564,1359.477539 216.121155,1353.625122 215.836456,1347.804321 
	C214.626358,1323.063354 212.737396,1298.341064 212.178253,1273.587402 
	C211.701065,1252.463501 212.643051,1231.304932 213.071762,1210.164062 
	C213.291046,1199.351074 213.757370,1188.543091 214.119003,1177.733032 
	C215.075241,1149.149658 216.095169,1120.568237 216.948914,1091.981689 
	C217.146408,1085.368896 216.330368,1084.944946 209.561203,1086.143066 
	C194.643661,1088.783447 179.745071,1091.545654 164.786453,1093.930054 
	C160.305252,1094.644409 158.755386,1096.315918 158.883667,1100.997803 
	C159.749954,1132.612671 160.367905,1164.234863 160.966293,1195.856445 
	C161.113052,1203.612549 160.600800,1203.987793 152.713547,1203.992188 
	C123.050392,1204.008667 93.387215,1204.006470 63.724049,1203.995117 
	C55.339291,1203.991943 54.684494,1203.074829 55.062279,1194.800049 
	C55.828522,1178.016724 56.360348,1161.222656 57.003670,1144.433716 
	C57.659447,1127.319580 58.442532,1110.209473 58.950310,1093.090942 
	C59.185936,1085.147217 58.607586,1084.794922 50.670418,1086.182251 
	C34.105927,1089.077515 17.555933,1092.055786 0.999997,1095.000000 
	C1.000000,730.406433 1.000000,365.812897 1.000000,1.000000 
	C321.362671,1.000000 641.725403,1.000000 962.180176,1.181544 
	C946.629456,3.583819 930.891724,5.284463 915.361328,8.120611 
	C864.110107,17.480093 816.128052,35.807877 771.129700,61.986668 
	C746.946228,76.055969 723.840881,91.864235 703.166138,110.627457 
	C685.603271,126.566483 668.846863,143.610748 653.349609,161.561127 
	C626.494080,192.667694 604.573730,227.151337 587.546387,264.707062 
	C570.884338,301.457428 558.938904,339.577881 552.375977,379.396057 
	C548.335205,403.911774 546.002808,428.588715 546.105103,453.422699 
	C546.161804,467.196472 546.373535,481.083466 548.131775,494.710876 
	C551.085144,517.600769 554.281372,540.556641 559.277649,563.062439 
	C566.477356,595.493896 578.190979,626.492676 593.064392,656.289124 
	C606.568054,683.341553 622.163635,709.065063 640.966003,732.726318 
	C651.369568,745.818359 662.217529,758.616333 673.642090,770.819519 
	C682.811584,780.614014 692.809753,789.715881 703.057678,798.396118 
	C715.614929,809.032532 728.321350,819.625977 741.847961,828.955200 
	C765.139587,845.019104 789.700378,858.997314 815.678223,870.439819 
	C842.418762,882.218323 869.987976,891.367493 898.404297,898.057556 
	C922.608948,903.756042 947.190430,906.989380 971.943970,908.806885 
	C983.713318,909.671021 995.557861,909.919495 1007.361145,909.790039 
	C1017.655334,909.677124 1027.990601,909.089050 1038.216797,907.917053 
	C1056.552612,905.815674 1075.022583,904.113647 1093.069580,900.441467 
	C1121.609253,894.634277 1149.486572,886.242859 1176.368896,874.750549 
	C1197.336060,865.786865 1217.641724,855.633240 1237.082031,843.685974 
	C1272.601685,821.856934 1304.707886,795.973633 1333.230957,765.472412 
	C1353.195923,744.122742 1371.205933,721.288269 1386.641846,696.603210 
	C1400.934326,673.747192 1413.191772,649.705017 1423.229614,624.569031 
	C1444.729736,570.730408 1455.318604,514.804626 1455.942505,456.932648 
	C1456.030396,448.792633 1455.226807,440.647003 1455.039062,432.499268 
	C1454.469360,407.799316 1451.524292,383.338501 1445.687256,359.393036 
	C1440.693970,338.909485 1434.739136,318.612335 1428.142700,298.584076 
	C1423.631958,284.888123 1418.042480,271.417328 1411.574829,258.528564 
	C1403.320190,242.078598 1393.993774,226.138977 1384.588501,210.300552 
	C1371.042358,187.489227 1354.318237,166.959229 1336.625244,147.322830 
	C1326.405518,135.980637 1315.245972,125.363106 1303.665527,115.400345 
	C1289.581421,103.283684 1275.038452,91.598618 1259.927856,80.798912 
	C1232.217163,60.993725 1202.310547,44.964443 1170.619507,32.426243 
	C1137.209717,19.208036 1102.793823,9.613581 1067.133545,4.747893 
	C1057.759766,3.468876 1048.378052,2.247726 1039.000000,1.000003 
	C1359.606323,1.000000 1680.212646,1.000000 2001.000000,1.000000 
	C2001.000000,410.029358 2001.000000,819.058777 2000.846680,1228.191895 
	C1999.339355,1222.650391 1998.257080,1216.922729 1996.575195,1211.376709 
	C1992.953979,1199.436279 1986.817017,1188.753296 1978.177490,1179.828735 
	C1962.302612,1163.430176 1941.937866,1157.690918 1919.936035,1158.227051 
	C1894.787109,1158.839600 1874.976440,1170.855713 1859.051270,1189.887939 
	C1841.554565,1210.798096 1831.575439,1234.877197 1828.319092,1261.841675 
	C1825.670654,1283.773193 1826.107056,1305.417969 1835.241333,1326.042480 
	C1842.054199,1341.425781 1851.941528,1354.584351 1866.544434,1363.215454 
	C1881.875122,1372.276855 1898.606201,1375.359619 1916.526611,1373.162964 
	C1935.006836,1370.897949 1950.798340,1363.159424 1963.801270,1350.457031 
	C1977.505981,1337.068970 1987.650146,1320.955078 1993.204224,1302.459839 
	C1996.399658,1291.819092 1998.439941,1280.831543 2001.000000,1270.000000 
M1404.635864,1134.110352 
	C1406.992310,1134.239014 1409.348755,1134.367798 1412.738770,1134.552979 
	C1411.148804,1137.325073 1410.286499,1139.069336 1409.209473,1140.669189 
	C1396.401245,1159.696777 1383.571533,1178.709961 1370.726807,1197.712891 
	C1355.363892,1220.441650 1339.979248,1243.155518 1324.607544,1265.878418 
	C1312.022583,1284.481934 1299.430054,1303.080566 1286.880981,1321.708374 
	C1285.586060,1323.630493 1283.905151,1325.619019 1283.522095,1327.775513 
	C1281.165039,1341.045166 1279.113647,1354.369385 1276.999878,1367.681641 
	C1276.529175,1370.646606 1277.788208,1371.992676 1280.903809,1371.845215 
	C1295.355713,1371.160889 1309.815430,1370.635864 1324.265503,1369.917236 
	C1333.561279,1369.454956 1342.840088,1368.652222 1352.135986,1368.192139 
	C1361.435791,1367.731812 1370.752930,1367.142090 1380.052246,1367.282471 
	C1389.506348,1367.424927 1398.941406,1368.537109 1408.396851,1368.955444 
	C1420.032104,1369.470337 1431.684448,1369.597900 1443.320679,1370.098755 
	C1452.452148,1370.491699 1461.579712,1371.077881 1470.689819,1371.816040 
	C1474.985718,1372.164062 1476.296143,1369.741211 1476.799194,1366.267456 
	C1478.920898,1351.620972 1481.069458,1336.977905 1483.073120,1322.315063 
	C1484.016968,1315.408081 1483.566528,1314.791626 1476.429932,1315.064819 
	C1464.634521,1315.516479 1452.852417,1316.328613 1441.067261,1317.030151 
	C1429.280396,1317.731812 1417.494263,1318.446167 1405.712158,1319.223145 
	C1387.131958,1320.448242 1368.557007,1321.755859 1349.975098,1322.953003 
	C1347.915283,1323.085693 1345.823853,1322.727051 1342.788208,1322.536011 
	C1344.327393,1319.895630 1345.279907,1318.030518 1346.440674,1316.305298 
	C1360.267456,1295.754028 1374.112793,1275.215210 1387.978271,1254.690063 
	C1404.822144,1229.756104 1421.684692,1204.834961 1438.549194,1179.914917 
	C1449.082275,1164.350464 1459.659912,1148.815918 1470.140015,1133.215698 
	C1471.321045,1131.457764 1472.511108,1129.439453 1472.823120,1127.407593 
	C1474.715820,1115.083618 1476.275635,1102.708740 1478.123535,1090.377319 
	C1478.730591,1086.326660 1477.179321,1084.804199 1473.294312,1085.012695 
	C1465.496826,1085.431152 1457.698853,1085.861206 1449.896606,1086.168945 
	C1425.011597,1087.150635 1400.129639,1088.593262 1375.236084,1088.854248 
	C1357.293335,1089.042480 1339.332764,1087.656860 1321.382324,1086.918091 
	C1313.239746,1086.583130 1305.065796,1086.450195 1296.977783,1085.568115 
	C1292.778198,1085.109985 1291.293335,1086.367676 1290.637817,1090.278687 
	C1288.000366,1106.016724 1285.190186,1121.726318 1282.378296,1137.434692 
	C1281.791870,1140.710938 1282.948120,1142.181152 1286.283813,1142.011108 
	C1294.590454,1141.587280 1302.906128,1141.311646 1311.205078,1140.772583 
	C1329.621338,1139.576660 1348.031372,1138.283081 1366.440308,1136.976196 
	C1378.877686,1136.093262 1391.308472,1135.119751 1404.635864,1134.110352 
M554.067261,1222.481079 
	C558.934814,1221.390259 563.764893,1219.602661 568.676880,1219.338257 
	C583.810425,1218.524170 595.063110,1222.370117 597.528137,1240.058105 
	C600.201050,1259.237793 597.880615,1278.261841 597.587585,1297.352295 
	C597.488098,1303.837158 597.117859,1310.319946 596.769470,1316.798218 
	C595.895386,1333.052856 594.943970,1349.303467 594.067444,1365.557983 
	C593.844788,1369.687134 595.732422,1371.315186 599.930908,1370.514404 
	C614.302551,1367.773682 628.665100,1364.958496 643.099060,1362.584717 
	C648.568237,1361.685425 650.326111,1359.066528 650.050415,1353.810059 
	C649.187805,1337.362427 648.590942,1320.900879 647.867310,1304.445801 
	C647.553101,1297.300537 646.899841,1290.158325 646.889771,1283.014038 
	C646.864990,1265.394043 646.698975,1247.756348 647.419983,1230.159668 
	C647.885071,1218.810425 648.439148,1207.685059 645.457703,1196.504883 
	C639.228210,1173.144287 618.950256,1159.130615 593.734375,1163.618408 
	C570.171082,1167.812256 552.052979,1181.111206 536.455017,1198.480225 
	C534.875549,1200.239136 533.218933,1201.928833 530.637207,1204.671387 
	C530.325684,1201.527954 530.159058,1199.942139 530.012756,1198.354492 
	C529.005859,1187.424805 527.985962,1176.496460 527.010681,1165.563965 
	C526.741821,1162.551025 525.533569,1160.836670 522.198547,1161.555542 
	C508.199615,1164.572144 494.201538,1167.592773 480.195465,1170.575928 
	C477.401978,1171.171021 476.405609,1172.619019 476.812622,1175.553711 
	C478.069183,1184.614502 479.342163,1193.684570 480.168396,1202.791016 
	C481.925629,1222.158936 484.519501,1241.541016 484.709930,1260.937622 
	C484.936554,1284.019043 482.976959,1307.120728 482.014069,1330.215576 
	C481.549591,1341.355469 481.435699,1352.516357 480.683685,1363.635376 
	C480.365448,1368.340698 481.988098,1369.204224 486.095856,1368.408203 
	C500.154236,1365.683838 514.243530,1363.119141 528.309937,1360.435547 
	C535.923828,1358.982910 536.330994,1358.437500 535.957336,1350.557739 
	C535.311584,1336.943726 534.617981,1323.331665 533.937195,1309.719360 
	C533.546631,1301.910278 533.062195,1294.105225 532.760010,1286.292969 
	C532.136353,1270.169434 531.458923,1254.044678 531.216614,1237.914185 
	C531.184692,1235.790894 533.058594,1232.727295 534.937378,1231.656006 
	C540.838928,1228.291016 547.164307,1225.669434 554.067261,1222.481079 
M359.599426,1316.232910 
	C357.829193,1316.700684 356.078461,1317.267212 354.285706,1317.620728 
	C340.479279,1320.343262 330.717712,1317.239990 325.261566,1307.102783 
	C322.760040,1302.455322 321.410522,1296.708496 321.218170,1291.399536 
	C320.845917,1281.124390 321.681091,1270.806641 321.983368,1260.505737 
	C322.354309,1247.864502 322.566559,1235.217163 323.082764,1222.582153 
	C323.516632,1211.961914 324.335327,1201.358032 324.894012,1190.742065 
	C325.313568,1182.769531 325.625641,1174.790894 325.914032,1166.812378 
	C326.024445,1163.757324 325.667175,1160.727051 321.414764,1161.498535 
	C305.701233,1164.349731 289.986389,1167.208862 274.345276,1170.421387 
	C272.728027,1170.753662 270.397705,1173.489990 270.431763,1175.066895 
	C270.736908,1189.197021 271.508209,1203.316772 272.121307,1217.440552 
	C272.481964,1225.748413 272.447449,1234.091064 273.218109,1242.359619 
	C274.826630,1259.617798 274.581512,1276.821045 273.421844,1294.096802 
	C272.701202,1304.832031 272.471741,1315.695557 273.248810,1326.412476 
	C274.290771,1340.782593 281.214233,1352.891479 292.944519,1360.899170 
	C310.815277,1373.098877 334.498169,1372.100952 351.946381,1358.880371 
	C361.985321,1351.273926 371.016907,1342.337891 380.500214,1333.998413 
	C381.926544,1332.744019 383.343018,1331.478516 385.289154,1329.752319 
	C386.069489,1332.179810 386.474213,1333.769043 387.081970,1335.276489 
	C391.241730,1345.593750 395.423004,1355.902466 399.645203,1366.194336 
	C400.960510,1369.400635 403.136322,1370.267212 406.446594,1368.780151 
	C417.672089,1363.737305 428.943390,1358.795410 440.228424,1353.886475 
	C443.503723,1352.461914 444.654175,1350.817017 443.170044,1346.973877 
	C439.766052,1338.159546 435.924988,1329.310059 434.146545,1320.110352 
	C428.921143,1293.079956 431.110199,1265.723877 432.277893,1238.476685 
	C433.266998,1215.396484 434.771118,1192.338867 435.918823,1169.264771 
	C436.194977,1163.713013 435.084106,1162.892944 429.384491,1163.915283 
	C415.620361,1166.384033 401.868591,1168.923462 388.126740,1171.513672 
	C380.173767,1173.012817 379.719574,1173.649048 380.046326,1181.681641 
	C380.701965,1197.801514 381.373138,1213.920898 382.049835,1230.039917 
	C382.405640,1238.515015 382.919525,1246.985718 383.127228,1255.464233 
	C383.498138,1270.604736 383.830200,1285.749878 383.787537,1300.892090 
	C383.782013,1302.845581 381.901215,1305.625366 380.114929,1306.592651 
	C373.711182,1310.060181 366.974762,1312.913452 359.599426,1316.232910 
M978.124451,1326.817627 
	C973.502258,1326.378906 968.786377,1326.381836 964.274109,1325.424805 
	C944.651001,1321.263916 935.704102,1300.916748 933.502686,1285.320801 
	C933.334717,1284.130371 936.080627,1281.453247 937.686768,1281.260986 
	C948.892700,1279.920044 960.155029,1279.050293 971.399658,1278.033447 
	C990.447144,1276.310791 1009.496887,1274.612427 1028.541382,1272.857300 
	C1034.307251,1272.326050 1041.917236,1266.663818 1042.959106,1262.133057 
	C1046.730957,1245.729248 1049.879517,1229.280151 1047.995850,1212.275269 
	C1045.651367,1191.110352 1037.312988,1173.529175 1016.922058,1164.657471 
	C992.378296,1153.978516 967.837646,1156.066895 945.038452,1169.621948 
	C927.231140,1180.209106 914.431335,1196.311279 904.869141,1214.420410 
	C889.653137,1243.236694 884.594421,1274.052856 890.066284,1306.352051 
	C893.296875,1325.421875 901.160034,1342.342896 915.449280,1355.565918 
	C933.544373,1372.310791 955.303528,1376.572754 979.114868,1372.454834 
	C1005.737793,1367.850464 1026.327271,1353.382935 1042.664551,1332.605957 
	C1047.036133,1327.046387 1048.644165,1326.136353 1042.229004,1319.475830 
	C1038.318604,1315.416016 1034.953613,1310.811035 1031.527954,1306.310669 
	C1029.209961,1303.265503 1027.337524,1302.387695 1023.863342,1305.242310 
	C1010.710999,1316.049194 996.216125,1324.274292 978.124451,1326.817627 
M1620.092041,1274.709961 
	C1626.205688,1274.121948 1632.308350,1273.338013 1638.435669,1272.996338 
	C1645.767090,1272.587646 1651.412109,1268.881348 1653.360718,1262.371460 
	C1659.340210,1242.395752 1661.631592,1221.979980 1657.033203,1201.284668 
	C1653.808716,1186.773193 1646.180908,1174.348511 1633.426880,1167.399292 
	C1611.349487,1155.370239 1587.818970,1154.557617 1564.720703,1165.236084 
	C1537.973511,1177.601562 1521.809448,1200.220459 1510.252441,1225.989136 
	C1501.400513,1245.726440 1497.918335,1267.091919 1499.071411,1288.873413 
	C1500.002930,1306.470947 1503.369629,1323.474609 1512.901367,1338.792358 
	C1519.679688,1349.685303 1527.919678,1358.933838 1539.313599,1365.200073 
	C1554.200684,1373.387695 1570.023315,1375.405273 1586.625366,1372.961792 
	C1616.397949,1368.579712 1638.994751,1352.900146 1655.957031,1328.598511 
	C1656.941162,1327.188965 1656.548828,1323.686157 1655.432007,1322.148926 
	C1651.639038,1316.928223 1647.181274,1312.195312 1643.075806,1307.195312 
	C1638.920410,1302.134399 1638.767822,1302.343872 1633.584473,1305.947388 
	C1626.234253,1311.057129 1618.878906,1316.356567 1610.901978,1320.319458 
	C1600.072632,1325.699585 1588.486206,1328.484131 1576.148193,1325.750366 
	C1555.825073,1321.247437 1546.814819,1302.202026 1544.292725,1285.253906 
	C1543.849365,1282.274292 1545.939575,1281.276611 1548.638306,1281.041870 
	C1572.153564,1278.995605 1595.664673,1276.903320 1620.092041,1274.709961 
M1694.129883,1353.807129 
	C1694.107910,1357.305664 1694.036621,1360.804932 1694.078003,1364.302734 
	C1694.118042,1367.690674 1695.707031,1369.096680 1699.213745,1368.427368 
	C1713.921631,1365.620117 1728.630859,1362.813477 1743.377686,1360.222778 
	C1747.452759,1359.506836 1749.154663,1357.502319 1748.989868,1353.486084 
	C1748.587524,1343.678101 1748.302856,1333.865234 1747.898560,1324.057373 
	C1747.576538,1316.246338 1747.081299,1308.442261 1746.781006,1300.630615 
	C1746.161499,1284.515869 1745.501099,1268.400391 1745.189575,1252.278931 
	C1745.147705,1250.113525 1746.455811,1247.221436 1748.116089,1245.841675 
	C1756.616089,1238.777588 1765.879639,1232.711304 1776.926270,1230.649048 
	C1784.897461,1229.161011 1793.067017,1228.690674 1801.163574,1227.930786 
	C1808.734619,1227.219971 1810.201660,1226.312622 1810.732300,1219.282227 
	C1811.995728,1202.540894 1813.038940,1185.780762 1813.949951,1169.016235 
	C1814.268311,1163.156616 1812.991943,1162.335571 1807.205078,1163.487305 
	C1795.240112,1165.868164 1784.933228,1171.698120 1776.524292,1180.207520 
	C1768.126587,1188.705444 1760.651489,1198.121216 1752.870850,1207.219116 
	C1750.401123,1210.106812 1748.248413,1213.265747 1745.120483,1217.396729 
	C1744.589600,1214.308228 1744.183716,1212.731934 1744.065308,1211.134399 
	C1742.997070,1196.714233 1742.013184,1182.287842 1740.930054,1167.868774 
	C1740.496826,1162.101440 1738.980469,1160.904297 1733.289551,1162.065430 
	C1722.848755,1164.195679 1712.476929,1166.672485 1702.016724,1168.696777 
	C1685.699097,1171.854736 1690.353271,1172.483887 1691.295166,1184.734497 
	C1693.255493,1210.234741 1696.152588,1235.667969 1697.813965,1261.184204 
	C1698.577393,1272.909058 1697.362061,1284.765259 1696.994507,1296.560425 
	C1696.667969,1307.038452 1696.375854,1317.519165 1695.875122,1327.989502 
	C1695.478149,1336.290771 1694.788452,1344.577881 1694.129883,1353.807129 
M1143.503296,1205.008789 
	C1140.734009,1208.794800 1137.964844,1212.580688 1134.471802,1217.356079 
	C1133.804932,1214.366943 1133.247559,1212.794678 1133.132690,1211.190674 
	C1132.681763,1204.890869 1132.471436,1198.573120 1131.981567,1192.276978 
	C1131.336914,1183.990723 1130.656250,1175.702148 1129.717896,1167.445557 
	C1129.055420,1161.617065 1127.988770,1160.892944 1122.292603,1162.067871 
	C1109.907227,1164.622559 1097.544800,1167.292236 1085.194092,1170.011230 
	C1079.162109,1171.339233 1078.904175,1172.352173 1079.606323,1178.748291 
	C1082.181763,1202.208252 1085.449951,1225.645996 1086.671631,1249.184692 
	C1087.702393,1269.043823 1086.389160,1289.035156 1085.845215,1308.960571 
	C1085.609741,1317.588501 1084.575439,1326.191650 1084.129761,1334.817749 
	C1083.632080,1344.447998 1083.354004,1354.090454 1083.057617,1363.729858 
	C1082.953979,1367.106323 1084.127686,1369.207764 1088.129639,1368.446045 
	C1103.168091,1365.583252 1118.216797,1362.772217 1133.276489,1360.023560 
	C1136.729492,1359.393311 1138.067871,1357.346924 1137.954224,1354.072388 
	C1137.562378,1342.780640 1137.175659,1331.488647 1136.735352,1320.198608 
	C1136.469849,1313.389160 1136.063110,1306.585327 1135.799561,1299.775879 
	C1135.188965,1283.995605 1134.507935,1268.215820 1134.183350,1252.429199 
	C1134.138550,1250.251465 1135.365356,1247.321899 1137.011719,1245.955322 
	C1146.317261,1238.231445 1156.426880,1231.749878 1168.718384,1230.004761 
	C1175.940674,1228.979248 1183.249512,1228.540161 1190.527832,1227.938477 
	C1197.539062,1227.359009 1199.264404,1226.266968 1199.722290,1220.022949 
	C1200.998047,1202.625732 1201.903320,1185.201782 1203.089478,1167.797607 
	C1203.390625,1163.377563 1201.044800,1162.403198 1197.582520,1163.288452 
	C1192.926758,1164.478882 1188.137939,1165.622925 1183.853394,1167.706421 
	C1166.926025,1175.937622 1154.820679,1189.555786 1143.503296,1205.008789 
z"/>
<path fill="#374151" opacity="1.000000" stroke="none" 
	d="
M1038.531372,1.000003 
	C1048.378052,2.247726 1057.759766,3.468876 1067.133545,4.747893 
	C1102.793823,9.613581 1137.209717,19.208036 1170.619507,32.426243 
	C1202.310547,44.964443 1232.217163,60.993725 1259.927856,80.798912 
	C1275.038452,91.598618 1289.581421,103.283684 1303.665527,115.400345 
	C1315.245972,125.363106 1326.405518,135.980637 1336.625244,147.322830 
	C1354.318237,166.959229 1371.042358,187.489227 1384.588501,210.300552 
	C1393.993774,226.138977 1403.320190,242.078598 1411.574829,258.528564 
	C1418.042480,271.417328 1423.631958,284.888123 1428.142700,298.584076 
	C1434.739136,318.612335 1440.693970,338.909485 1445.687256,359.393036 
	C1451.524292,383.338501 1454.469360,407.799316 1455.039062,432.499268 
	C1455.226807,440.647003 1456.030396,448.792633 1455.942505,456.932648 
	C1455.318604,514.804626 1444.729736,570.730408 1423.229614,624.569031 
	C1413.191772,649.705017 1400.934326,673.747192 1386.641846,696.603210 
	C1371.205933,721.288269 1353.195923,744.122742 1333.230957,765.472412 
	C1304.707886,795.973633 1272.601685,821.856934 1237.082031,843.685974 
	C1217.641724,855.633240 1197.336060,865.786865 1176.368896,874.750549 
	C1149.486572,886.242859 1121.609253,894.634277 1093.069580,900.441467 
	C1075.022583,904.113647 1056.552612,905.815674 1038.216797,907.917053 
	C1027.990601,909.089050 1017.655334,909.677124 1007.361145,909.790039 
	C995.557861,909.919495 983.713318,909.671021 971.943970,908.806885 
	C947.190430,906.989380 922.608948,903.756042 898.404297,898.057556 
	C869.987976,891.367493 842.418762,882.218323 815.678223,870.439819 
	C789.700378,858.997314 765.139587,845.019104 741.847961,828.955200 
	C728.321350,819.625977 715.614929,809.032532 703.057678,798.396118 
	C692.809753,789.715881 682.811584,780.614014 673.642090,770.819519 
	C662.217529,758.616333 651.369568,745.818359 640.966003,732.726318 
	C622.163635,709.065063 606.568054,683.341553 593.064392,656.289124 
	C578.190979,626.492676 566.477356,595.493896 559.277649,563.062439 
	C554.281372,540.556641 551.085144,517.600769 548.131775,494.710876 
	C546.373535,481.083466 546.161804,467.196472 546.105103,453.422699 
	C546.002808,428.588715 548.335205,403.911774 552.375977,379.396057 
	C558.938904,339.577881 570.884338,301.457428 587.546387,264.707062 
	C604.573730,227.151337 626.494080,192.667694 653.349609,161.561127 
	C668.846863,143.610748 685.603271,126.566483 703.166138,110.627457 
	C723.840881,91.864235 746.946228,76.055969 771.129700,61.986668 
	C816.128052,35.807877 864.110107,17.480093 915.361328,8.120611 
	C930.891724,5.284463 946.629456,3.583819 962.636108,1.181544 
	C988.020935,1.000000 1013.041809,1.000000 1038.531372,1.000003 
M586.295715,386.851440 
	C584.529480,403.379181 581.710815,419.878815 581.268982,436.441895 
	C580.742004,456.198883 581.625793,476.054596 583.025391,495.787598 
	C585.129333,525.450500 591.642700,554.342224 600.719604,582.645386 
	C610.622314,613.523315 624.104736,642.708069 640.733826,670.598816 
	C655.046326,694.604187 671.383667,717.033325 690.228027,737.524414 
	C717.608154,767.297119 748.484863,793.007019 783.114380,814.086731 
	C810.260254,830.611084 838.779297,844.394043 869.137756,853.630798 
	C890.220825,860.045471 911.865234,864.941284 933.547485,868.957642 
	C950.984558,872.187744 968.812500,873.945496 986.542297,874.807312 
	C1012.514038,876.069702 1038.414551,874.115967 1064.180420,870.211792 
	C1105.335693,863.975647 1144.666870,851.972595 1182.153931,833.929871 
	C1203.334351,823.735718 1223.894287,812.399841 1242.522583,797.982422 
	C1258.260010,785.802307 1274.226807,773.773010 1288.810181,760.290344 
	C1302.074341,748.027222 1313.811646,734.074585 1325.862427,720.546326 
	C1341.300171,703.215698 1353.969604,683.843201 1365.492432,663.785889 
	C1378.025269,641.970337 1388.583984,619.184998 1397.048096,595.441895 
	C1411.020142,556.248901 1418.936157,515.822754 1420.829468,474.340118 
	C1421.891602,451.069366 1421.073608,427.769135 1418.216919,404.544312 
	C1412.411255,357.343811 1399.223389,312.373901 1378.314697,269.708893 
	C1363.758911,240.007019 1345.746460,212.495178 1324.630371,187.006897 
	C1307.612671,166.465485 1288.920410,147.633621 1268.313232,130.687759 
	C1229.856323,99.063423 1187.266724,74.752403 1140.276489,58.227158 
	C1084.987061,38.783226 1028.076538,31.863544 969.676392,35.845276 
	C936.938354,38.077366 905.022339,44.362000 873.807373,54.240517 
	C833.990540,66.841286 796.949829,85.126038 762.551697,108.881332 
	C727.504944,133.084564 696.865845,161.926971 670.526123,195.318405 
	C654.316223,215.868118 640.084229,237.785126 628.040100,261.027557 
	C607.601746,300.468903 593.724060,342.144684 586.295715,386.851440 
z"/>
<path fill="#374151" opacity="1.000000" stroke="none" 
	d="
M0.999997,1095.468628 
	C17.555933,1092.055786 34.105927,1089.077515 50.670418,1086.182251 
	C58.607586,1084.794922 59.185936,1085.147217 58.950310,1093.090942 
	C58.442532,1110.209473 57.659447,1127.319580 57.003670,1144.433716 
	C56.360348,1161.222656 55.828522,1178.016724 55.062279,1194.800049 
	C54.684494,1203.074829 55.339291,1203.991943 63.724049,1203.995117 
	C93.387215,1204.006470 123.050392,1204.008667 152.713547,1203.992188 
	C160.600800,1203.987793 161.113052,1203.612549 160.966293,1195.856445 
	C160.367905,1164.234863 159.749954,1132.612671 158.883667,1100.997803 
	C158.755386,1096.315918 160.305252,1094.644409 164.786453,1093.930054 
	C179.745071,1091.545654 194.643661,1088.783447 209.561203,1086.143066 
	C216.330368,1084.944946 217.146408,1085.368896 216.948914,1091.981689 
	C216.095169,1120.568237 215.075241,1149.149658 214.119003,1177.733032 
	C213.757370,1188.543091 213.291046,1199.351074 213.071762,1210.164062 
	C212.643051,1231.304932 211.701065,1252.463501 212.178253,1273.587402 
	C212.737396,1298.341064 214.626358,1323.063354 215.836456,1347.804321 
	C216.121155,1353.625122 216.209564,1359.477539 215.894333,1365.288452 
	C215.825134,1366.563721 213.664749,1368.764160 212.443085,1368.781128 
	C196.115952,1369.007202 179.784409,1368.940186 163.454102,1368.895630 
	C159.935852,1368.885986 158.946121,1366.557739 159.045441,1363.526001 
	C159.415863,1352.216797 159.719971,1340.903931 160.252487,1329.602051 
	C160.643570,1321.301880 161.596497,1313.024536 161.867813,1304.723022 
	C162.400345,1288.428589 162.700989,1272.125366 162.952652,1255.823486 
	C163.045074,1249.836914 162.207291,1249.038940 156.392456,1249.031372 
	C124.396332,1248.989868 92.400024,1249.049194 60.404026,1248.971558 
	C56.091602,1248.961182 53.812653,1250.371826 53.992355,1255.019409 
	C54.974342,1280.416382 55.875160,1305.816772 56.809006,1331.215698 
	C57.194160,1341.691284 57.518692,1352.169800 58.016953,1362.640015 
	C58.246082,1367.454956 56.051498,1369.081421 51.431019,1369.043335 
	C34.934116,1368.907593 18.435366,1368.996460 1.468657,1369.000244 
	C1.000000,1360.645752 1.000000,1352.291504 1.152615,1343.084961 
	C1.497155,1341.426147 1.823395,1340.625977 1.861437,1339.812378 
	C2.925027,1317.061279 4.688015,1294.312866 4.809092,1271.555786 
	C4.951512,1244.787354 3.654269,1218.011597 3.003428,1191.238525 
	C2.635706,1176.111816 2.338362,1160.983276 1.931425,1145.857666 
	C1.887668,1144.231323 1.323019,1142.618896 1.000000,1141.000000 
	C1.000000,1125.979126 1.000000,1110.958130 0.999997,1095.468628 
z"/>
<path fill="#374151" opacity="1.000000" stroke="none" 
	d="
M742.468628,1458.000000 
	C730.966675,1454.938843 719.744690,1452.419067 708.954895,1448.659180 
	C698.846191,1445.136475 690.734314,1438.293579 685.177917,1429.046021 
	C675.220276,1412.473389 679.040222,1392.673340 694.215271,1378.951538 
	C707.125244,1367.277832 722.728149,1360.765015 738.780762,1355.018555 
	C740.313110,1354.469971 741.831482,1353.882568 744.305481,1352.958740 
	C742.559204,1351.456421 741.452271,1350.378052 740.222107,1349.465820 
	C729.603699,1341.593140 727.022888,1326.686890 738.200134,1317.264526 
	C740.105286,1315.658447 741.864746,1313.859863 743.549133,1312.019775 
	C744.478516,1311.004517 745.111755,1309.718384 745.878540,1308.554443 
	C744.564941,1308.047607 743.290466,1307.291382 741.930664,1307.078003 
	C736.533630,1306.230347 731.022278,1305.941528 725.710938,1304.745605 
	C700.736450,1299.121582 683.629761,1276.928101 682.847168,1251.344360 
	C682.153381,1228.664917 688.773499,1209.149780 704.005249,1192.380859 
	C721.860535,1172.723755 743.673645,1161.488770 770.304504,1158.765015 
	C787.470825,1157.009277 803.562500,1162.321045 820.186462,1163.835205 
	C836.882996,1165.355957 853.716736,1165.471680 870.497803,1165.925659 
	C881.043823,1166.211060 880.939941,1165.966309 879.436401,1176.495239 
	C878.449341,1183.407104 877.588013,1190.356689 877.148315,1197.319702 
	C876.878174,1201.597900 875.706055,1203.321167 871.079346,1202.375732 
	C865.880981,1201.313232 860.523254,1201.051880 855.250977,1200.325195 
	C848.123108,1199.343018 846.714722,1200.608154 848.216614,1207.624268 
	C853.327881,1231.501831 848.145691,1253.208130 832.797058,1271.774536 
	C825.717102,1280.338867 816.271790,1287.019653 807.554260,1294.131958 
	C802.153381,1298.538452 796.055237,1302.081909 790.371399,1306.154175 
	C788.086792,1307.791016 785.915222,1309.655029 783.973511,1311.684814 
	C780.939697,1314.855957 780.844055,1318.569214 784.125610,1321.366943 
	C787.225830,1324.010132 790.817078,1326.335693 794.565125,1327.917358 
	C814.048462,1336.138672 833.532715,1344.212646 851.536499,1355.589111 
	C875.429932,1370.687256 875.930176,1397.948486 863.690308,1417.783203 
	C854.818176,1432.160278 841.492615,1441.656250 826.022583,1447.586426 
	C814.924133,1451.840576 803.156738,1454.349731 791.343872,1457.818604 
	C774.979126,1458.000000 758.958191,1458.000000 742.468628,1458.000000 
M730.002686,1237.414307 
	C730.131348,1248.774902 732.931458,1259.226562 743.301086,1265.313354 
	C757.001099,1273.355225 771.670044,1273.927002 786.465698,1268.203125 
	C794.343323,1265.155396 798.848877,1259.055420 801.118408,1251.056396 
	C804.026733,1240.806030 803.586975,1230.535278 800.432068,1220.576660 
	C797.006348,1209.763184 789.455933,1202.694824 778.004639,1201.055664 
	C771.475952,1200.121094 764.658691,1199.537720 758.171265,1200.364624 
	C748.042908,1201.655640 739.127991,1205.776855 734.073059,1215.684814 
	C730.712219,1222.272217 729.696167,1229.207520 730.002686,1237.414307 
M743.450195,1381.874512 
	C741.319092,1383.442261 739.104858,1384.909790 737.071716,1386.595703 
	C729.650391,1392.749878 728.788147,1402.889404 735.714355,1409.775513 
	C739.129822,1413.171143 743.436646,1416.211182 747.911926,1417.863525 
	C753.594116,1419.961670 759.812134,1421.148438 765.878296,1421.559814 
	C780.482849,1422.550415 794.823242,1421.388916 807.351318,1412.525391 
	C820.986877,1402.878174 820.081177,1388.439209 807.802795,1381.265259 
	C800.224060,1376.837402 792.352539,1372.893921 784.480591,1368.999512 
	C783.039307,1368.286499 780.792297,1368.362061 779.208191,1368.911621 
	C767.460205,1372.989014 755.785645,1377.278320 743.450195,1381.874512 
z"/>
<path fill="#374151" opacity="1.000000" stroke="none" 
	d="
M2001.000000,1269.531372 
	C1998.439941,1280.831543 1996.399658,1291.819092 1993.204224,1302.459839 
	C1987.650146,1320.955078 1977.505981,1337.068970 1963.801270,1350.457031 
	C1950.798340,1363.159424 1935.006836,1370.897949 1916.526611,1373.162964 
	C1898.606201,1375.359619 1881.875122,1372.276855 1866.544434,1363.215454 
	C1851.941528,1354.584351 1842.054199,1341.425781 1835.241333,1326.042480 
	C1826.107056,1305.417969 1825.670654,1283.773193 1828.319092,1261.841675 
	C1831.575439,1234.877197 1841.554565,1210.798096 1859.051270,1189.887939 
	C1874.976440,1170.855713 1894.787109,1158.839600 1919.936035,1158.227051 
	C1941.937866,1157.690918 1962.302612,1163.430176 1978.177490,1179.828735 
	C1986.817017,1188.753296 1992.953979,1199.436279 1996.575195,1211.376709 
	C1998.257080,1216.922729 1999.339355,1222.650391 2000.846680,1228.647949 
	C2001.000000,1242.354248 2001.000000,1255.708496 2001.000000,1269.531372 
M1874.003174,1259.604004 
	C1874.005737,1263.930908 1873.814087,1268.268188 1874.046631,1272.582642 
	C1874.789429,1286.363525 1877.674927,1299.392944 1886.119263,1310.887939 
	C1894.427490,1322.197632 1905.396851,1327.630249 1919.147705,1326.712646 
	C1934.389404,1325.695557 1944.741699,1316.774292 1949.570190,1303.000610 
	C1957.867920,1279.331055 1957.627197,1255.234375 1948.372925,1231.746460 
	C1937.993042,1205.402100 1902.803833,1206.347778 1888.574951,1220.070679 
	C1877.769775,1230.491455 1874.557129,1244.151367 1874.003174,1259.604004 
z"/>
<path fill="#4C6971" opacity="1.000000" stroke="none" 
	d="
M1.000000,1141.468628 
	C1.323019,1142.618896 1.887668,1144.231323 1.931425,1145.857666 
	C2.338362,1160.983276 2.635706,1176.111816 3.003428,1191.238525 
	C3.654269,1218.011597 4.951512,1244.787354 4.809092,1271.555786 
	C4.688015,1294.312866 2.925027,1317.061279 1.861437,1339.812378 
	C1.823395,1340.625977 1.497155,1341.426147 1.152615,1342.616333 
	C1.000000,1275.979126 1.000000,1208.958130 1.000000,1141.468628 
z"/>
<path fill="#374151" opacity="1.000000" stroke="none" 
	d="
M1404.189087,1134.148560 
	C1391.308472,1135.119751 1378.877686,1136.093262 1366.440308,1136.976196 
	C1348.031372,1138.283081 1329.621338,1139.576660 1311.205078,1140.772583 
	C1302.906128,1141.311646 1294.590454,1141.587280 1286.283813,1142.011108 
	C1282.948120,1142.181152 1281.791870,1140.710938 1282.378296,1137.434692 
	C1285.190186,1121.726318 1288.000366,1106.016724 1290.637817,1090.278687 
	C1291.293335,1086.367676 1292.778198,1085.109985 1296.977783,1085.568115 
	C1305.065796,1086.450195 1313.239746,1086.583130 1321.382324,1086.918091 
	C1339.332764,1087.656860 1357.293335,1089.042480 1375.236084,1088.854248 
	C1400.129639,1088.593262 1425.011597,1087.150635 1449.896606,1086.168945 
	C1457.698853,1085.861206 1465.496826,1085.431152 1473.294312,1085.012695 
	C1477.179321,1084.804199 1478.730591,1086.326660 1478.123535,1090.377319 
	C1476.275635,1102.708740 1474.715820,1115.083618 1472.823120,1127.407593 
	C1472.511108,1129.439453 1471.321045,1131.457764 1470.140015,1133.215698 
	C1459.659912,1148.815918 1449.082275,1164.350464 1438.549194,1179.914917 
	C1421.684692,1204.834961 1404.822144,1229.756104 1387.978271,1254.690063 
	C1374.112793,1275.215210 1360.267456,1295.754028 1346.440674,1316.305298 
	C1345.279907,1318.030518 1344.327393,1319.895630 1342.788208,1322.536011 
	C1345.823853,1322.727051 1347.915283,1323.085693 1349.975098,1322.953003 
	C1368.557007,1321.755859 1387.131958,1320.448242 1405.712158,1319.223145 
	C1417.494263,1318.446167 1429.280396,1317.731812 1441.067261,1317.030151 
	C1452.852417,1316.328613 1464.634521,1315.516479 1476.429932,1315.064819 
	C1483.566528,1314.791626 1484.016968,1315.408081 1483.073120,1322.315063 
	C1481.069458,1336.977905 1478.920898,1351.620972 1476.799194,1366.267456 
	C1476.296143,1369.741211 1474.985718,1372.164062 1470.689819,1371.816040 
	C1461.579712,1371.077881 1452.452148,1370.491699 1443.320679,1370.098755 
	C1431.684448,1369.597900 1420.032104,1369.470337 1408.396851,1368.955444 
	C1398.941406,1368.537109 1389.506348,1367.424927 1380.052246,1367.282471 
	C1370.752930,1367.142090 1361.435791,1367.731812 1352.135986,1368.192139 
	C1342.840088,1368.652222 1333.561279,1369.454956 1324.265503,1369.917236 
	C1309.815430,1370.635864 1295.355713,1371.160889 1280.903809,1371.845215 
	C1277.788208,1371.992676 1276.529175,1370.646606 1276.999878,1367.681641 
	C1279.113647,1354.369385 1281.165039,1341.045166 1283.522095,1327.775513 
	C1283.905151,1325.619019 1285.586060,1323.630493 1286.880981,1321.708374 
	C1299.430054,1303.080566 1312.022583,1284.481934 1324.607544,1265.878418 
	C1339.979248,1243.155518 1355.363892,1220.441650 1370.726807,1197.712891 
	C1383.571533,1178.709961 1396.401245,1159.696777 1409.209473,1140.669189 
	C1410.286499,1139.069336 1411.148804,1137.325073 1412.738770,1134.552979 
	C1409.348755,1134.367798 1406.992310,1134.239014 1404.189087,1134.148560 
z"/>
<path fill="#374151" opacity="1.000000" stroke="none" 
	d="
M553.696411,1222.620483 
	C547.164307,1225.669434 540.838928,1228.291016 534.937378,1231.656006 
	C533.058594,1232.727295 531.184692,1235.790894 531.216614,1237.914185 
	C531.458923,1254.044678 532.136353,1270.169434 532.760010,1286.292969 
	C533.062195,1294.105225 533.546631,1301.910278 533.937195,1309.719360 
	C534.617981,1323.331665 535.311584,1336.943726 535.957336,1350.557739 
	C536.330994,1358.437500 535.923828,1358.982910 528.309937,1360.435547 
	C514.243530,1363.119141 500.154236,1365.683838 486.095856,1368.408203 
	C481.988098,1369.204224 480.365448,1368.340698 480.683685,1363.635376 
	C481.435699,1352.516357 481.549591,1341.355469 482.014069,1330.215576 
	C482.976959,1307.120728 484.936554,1284.019043 484.709930,1260.937622 
	C484.519501,1241.541016 481.925629,1222.158936 480.168396,1202.791016 
	C479.342163,1193.684570 478.069183,1184.614502 476.812622,1175.553711 
	C476.405609,1172.619019 477.401978,1171.171021 480.195465,1170.575928 
	C494.201538,1167.592773 508.199615,1164.572144 522.198547,1161.555542 
	C525.533569,1160.836670 526.741821,1162.551025 527.010681,1165.563965 
	C527.985962,1176.496460 529.005859,1187.424805 530.012756,1198.354492 
	C530.159058,1199.942139 530.325684,1201.527954 530.637207,1204.671387 
	C533.218933,1201.928833 534.875549,1200.239136 536.455017,1198.480225 
	C552.052979,1181.111206 570.171082,1167.812256 593.734375,1163.618408 
	C618.950256,1159.130615 639.228210,1173.144287 645.457703,1196.504883 
	C648.439148,1207.685059 647.885071,1218.810425 647.419983,1230.159668 
	C646.698975,1247.756348 646.864990,1265.394043 646.889771,1283.014038 
	C646.899841,1290.158325 647.553101,1297.300537 647.867310,1304.445801 
	C648.590942,1320.900879 649.187805,1337.362427 650.050415,1353.810059 
	C650.326111,1359.066528 648.568237,1361.685425 643.099060,1362.584717 
	C628.665100,1364.958496 614.302551,1367.773682 599.930908,1370.514404 
	C595.732422,1371.315186 593.844788,1369.687134 594.067444,1365.557983 
	C594.943970,1349.303467 595.895386,1333.052856 596.769470,1316.798218 
	C597.117859,1310.319946 597.488098,1303.837158 597.587585,1297.352295 
	C597.880615,1278.261841 600.201050,1259.237793 597.528137,1240.058105 
	C595.063110,1222.370117 583.810425,1218.524170 568.676880,1219.338257 
	C563.764893,1219.602661 558.934814,1221.390259 553.696411,1222.620483 
z"/>
<path fill="#374151" opacity="1.000000" stroke="none" 
	d="
M359.981750,1316.115967 
	C366.974762,1312.913452 373.711182,1310.060181 380.114929,1306.592651 
	C381.901215,1305.625366 383.782013,1302.845581 383.787537,1300.892090 
	C383.830200,1285.749878 383.498138,1270.604736 383.127228,1255.464233 
	C382.919525,1246.985718 382.405640,1238.515015 382.049835,1230.039917 
	C381.373138,1213.920898 380.701965,1197.801514 380.046326,1181.681641 
	C379.719574,1173.649048 380.173767,1173.012817 388.126740,1171.513672 
	C401.868591,1168.923462 415.620361,1166.384033 429.384491,1163.915283 
	C435.084106,1162.892944 436.194977,1163.713013 435.918823,1169.264771 
	C434.771118,1192.338867 433.266998,1215.396484 432.277893,1238.476685 
	C431.110199,1265.723877 428.921143,1293.079956 434.146545,1320.110352 
	C435.924988,1329.310059 439.766052,1338.159546 443.170044,1346.973877 
	C444.654175,1350.817017 443.503723,1352.461914 440.228424,1353.886475 
	C428.943390,1358.795410 417.672089,1363.737305 406.446594,1368.780151 
	C403.136322,1370.267212 400.960510,1369.400635 399.645203,1366.194336 
	C395.423004,1355.902466 391.241730,1345.593750 387.081970,1335.276489 
	C386.474213,1333.769043 386.069489,1332.179810 385.289154,1329.752319 
	C383.343018,1331.478516 381.926544,1332.744019 380.500214,1333.998413 
	C371.016907,1342.337891 361.985321,1351.273926 351.946381,1358.880371 
	C334.498169,1372.100952 310.815277,1373.098877 292.944519,1360.899170 
	C281.214233,1352.891479 274.290771,1340.782593 273.248810,1326.412476 
	C272.471741,1315.695557 272.701202,1304.832031 273.421844,1294.096802 
	C274.581512,1276.821045 274.826630,1259.617798 273.218109,1242.359619 
	C272.447449,1234.091064 272.481964,1225.748413 272.121307,1217.440552 
	C271.508209,1203.316772 270.736908,1189.197021 270.431763,1175.066895 
	C270.397705,1173.489990 272.728027,1170.753662 274.345276,1170.421387 
	C289.986389,1167.208862 305.701233,1164.349731 321.414764,1161.498535 
	C325.667175,1160.727051 326.024445,1163.757324 325.914032,1166.812378 
	C325.625641,1174.790894 325.313568,1182.769531 324.894012,1190.742065 
	C324.335327,1201.358032 323.516632,1211.961914 323.082764,1222.582153 
	C322.566559,1235.217163 322.354309,1247.864502 321.983368,1260.505737 
	C321.681091,1270.806641 320.845917,1281.124390 321.218170,1291.399536 
	C321.410522,1296.708496 322.760040,1302.455322 325.261566,1307.102783 
	C330.717712,1317.239990 340.479279,1320.343262 354.285706,1317.620728 
	C356.078461,1317.267212 357.829193,1316.700684 359.981750,1316.115967 
z"/>
<path fill="#374151" opacity="1.000000" stroke="none" 
	d="
M978.564575,1326.758545 
	C996.216125,1324.274292 1010.710999,1316.049194 1023.863342,1305.242310 
	C1027.337524,1302.387695 1029.209961,1303.265503 1031.527954,1306.310669 
	C1034.953613,1310.811035 1038.318604,1315.416016 1042.229004,1319.475830 
	C1048.644165,1326.136353 1047.036133,1327.046387 1042.664551,1332.605957 
	C1026.327271,1353.382935 1005.737793,1367.850464 979.114868,1372.454834 
	C955.303528,1376.572754 933.544373,1372.310791 915.449280,1355.565918 
	C901.160034,1342.342896 893.296875,1325.421875 890.066284,1306.352051 
	C884.594421,1274.052856 889.653137,1243.236694 904.869141,1214.420410 
	C914.431335,1196.311279 927.231140,1180.209106 945.038452,1169.621948 
	C967.837646,1156.066895 992.378296,1153.978516 1016.922058,1164.657471 
	C1037.312988,1173.529175 1045.651367,1191.110352 1047.995850,1212.275269 
	C1049.879517,1229.280151 1046.730957,1245.729248 1042.959106,1262.133057 
	C1041.917236,1266.663818 1034.307251,1272.326050 1028.541382,1272.857300 
	C1009.496887,1274.612427 990.447144,1276.310791 971.399658,1278.033447 
	C960.155029,1279.050293 948.892700,1279.920044 937.686768,1281.260986 
	C936.080627,1281.453247 933.334717,1284.130371 933.502686,1285.320801 
	C935.704102,1300.916748 944.651001,1321.263916 964.274109,1325.424805 
	C968.786377,1326.381836 973.502258,1326.378906 978.564575,1326.758545 
M959.596924,1248.041382 
	C969.326965,1246.875610 979.080933,1245.877686 988.780518,1244.498047 
	C998.820312,1243.069946 998.790588,1242.906860 1000.095520,1232.876709 
	C1000.202087,1232.057617 1000.655640,1231.261719 1000.656738,1230.454590 
	C1000.668945,1221.668579 1000.072998,1212.966919 992.370178,1207.026733 
	C982.323914,1199.279175 971.116394,1199.445435 960.340698,1204.532715 
	C942.833801,1212.797852 935.038696,1228.188599 932.097961,1246.527832 
	C931.880859,1247.882080 932.340515,1249.344849 932.550171,1251.387451 
	C941.596924,1250.248657 950.147095,1249.172363 959.596924,1248.041382 
z"/>
<path fill="#374151" opacity="1.000000" stroke="none" 
	d="
M1619.634521,1274.767334 
	C1595.664673,1276.903320 1572.153564,1278.995605 1548.638306,1281.041870 
	C1545.939575,1281.276611 1543.849365,1282.274292 1544.292725,1285.253906 
	C1546.814819,1302.202026 1555.825073,1321.247437 1576.148193,1325.750366 
	C1588.486206,1328.484131 1600.072632,1325.699585 1610.901978,1320.319458 
	C1618.878906,1316.356567 1626.234253,1311.057129 1633.584473,1305.947388 
	C1638.767822,1302.343872 1638.920410,1302.134399 1643.075806,1307.195312 
	C1647.181274,1312.195312 1651.639038,1316.928223 1655.432007,1322.148926 
	C1656.548828,1323.686157 1656.941162,1327.188965 1655.957031,1328.598511 
	C1638.994751,1352.900146 1616.397949,1368.579712 1586.625366,1372.961792 
	C1570.023315,1375.405273 1554.200684,1373.387695 1539.313599,1365.200073 
	C1527.919678,1358.933838 1519.679688,1349.685303 1512.901367,1338.792358 
	C1503.369629,1323.474609 1500.002930,1306.470947 1499.071411,1288.873413 
	C1497.918335,1267.091919 1501.400513,1245.726440 1510.252441,1225.989136 
	C1521.809448,1200.220459 1537.973511,1177.601562 1564.720703,1165.236084 
	C1587.818970,1154.557617 1611.349487,1155.370239 1633.426880,1167.399292 
	C1646.180908,1174.348511 1653.808716,1186.773193 1657.033203,1201.284668 
	C1661.631592,1221.979980 1659.340210,1242.395752 1653.360718,1262.371460 
	C1651.412109,1268.881348 1645.767090,1272.587646 1638.435669,1272.996338 
	C1632.308350,1273.338013 1626.205688,1274.121948 1619.634521,1274.767334 
M1555.466919,1216.960327 
	C1547.478271,1226.647949 1543.957397,1237.990967 1542.422974,1250.856323 
	C1545.046143,1250.856323 1547.016479,1251.054688 1548.935913,1250.825317 
	C1565.623535,1248.830444 1582.315918,1246.863281 1598.978638,1244.672607 
	C1609.797485,1243.250122 1609.775513,1243.089111 1611.443359,1232.213989 
	C1611.519043,1231.720337 1611.686401,1231.235718 1611.716187,1230.741089 
	C1612.885986,1211.343262 1601.239136,1198.682007 1581.085938,1201.717041 
	C1570.713135,1203.279175 1562.505249,1208.414917 1555.466919,1216.960327 
z"/>
<path fill="#374151" opacity="1.000000" stroke="none" 
	d="
M1694.179321,1353.339233 
	C1694.788452,1344.577881 1695.478149,1336.290771 1695.875122,1327.989502 
	C1696.375854,1317.519165 1696.667969,1307.038452 1696.994507,1296.560425 
	C1697.362061,1284.765259 1698.577393,1272.909058 1697.813965,1261.184204 
	C1696.152588,1235.667969 1693.255493,1210.234741 1691.295166,1184.734497 
	C1690.353271,1172.483887 1685.699097,1171.854736 1702.016724,1168.696777 
	C1712.476929,1166.672485 1722.848755,1164.195679 1733.289551,1162.065430 
	C1738.980469,1160.904297 1740.496826,1162.101440 1740.930054,1167.868774 
	C1742.013184,1182.287842 1742.997070,1196.714233 1744.065308,1211.134399 
	C1744.183716,1212.731934 1744.589600,1214.308228 1745.120483,1217.396729 
	C1748.248413,1213.265747 1750.401123,1210.106812 1752.870850,1207.219116 
	C1760.651489,1198.121216 1768.126587,1188.705444 1776.524292,1180.207520 
	C1784.933228,1171.698120 1795.240112,1165.868164 1807.205078,1163.487305 
	C1812.991943,1162.335571 1814.268311,1163.156616 1813.949951,1169.016235 
	C1813.038940,1185.780762 1811.995728,1202.540894 1810.732300,1219.282227 
	C1810.201660,1226.312622 1808.734619,1227.219971 1801.163574,1227.930786 
	C1793.067017,1228.690674 1784.897461,1229.161011 1776.926270,1230.649048 
	C1765.879639,1232.711304 1756.616089,1238.777588 1748.116089,1245.841675 
	C1746.455811,1247.221436 1745.147705,1250.113525 1745.189575,1252.278931 
	C1745.501099,1268.400391 1746.161499,1284.515869 1746.781006,1300.630615 
	C1747.081299,1308.442261 1747.576538,1316.246338 1747.898560,1324.057373 
	C1748.302856,1333.865234 1748.587524,1343.678101 1748.989868,1353.486084 
	C1749.154663,1357.502319 1747.452759,1359.506836 1743.377686,1360.222778 
	C1728.630859,1362.813477 1713.921631,1365.620117 1699.213745,1368.427368 
	C1695.707031,1369.096680 1694.118042,1367.690674 1694.078003,1364.302734 
	C1694.036621,1360.804932 1694.107910,1357.305664 1694.179321,1353.339233 
z"/>
<path fill="#374151" opacity="1.000000" stroke="none" 
	d="
M1143.729004,1204.730225 
	C1154.820679,1189.555786 1166.926025,1175.937622 1183.853394,1167.706421 
	C1188.137939,1165.622925 1192.926758,1164.478882 1197.582520,1163.288452 
	C1201.044800,1162.403198 1203.390625,1163.377563 1203.089478,1167.797607 
	C1201.903320,1185.201782 1200.998047,1202.625732 1199.722290,1220.022949 
	C1199.264404,1226.266968 1197.539062,1227.359009 1190.527832,1227.938477 
	C1183.249512,1228.540161 1175.940674,1228.979248 1168.718384,1230.004761 
	C1156.426880,1231.749878 1146.317261,1238.231445 1137.011719,1245.955322 
	C1135.365356,1247.321899 1134.138550,1250.251465 1134.183350,1252.429199 
	C1134.507935,1268.215820 1135.188965,1283.995605 1135.799561,1299.775879 
	C1136.063110,1306.585327 1136.469849,1313.389160 1136.735352,1320.198608 
	C1137.175659,1331.488647 1137.562378,1342.780640 1137.954224,1354.072388 
	C1138.067871,1357.346924 1136.729492,1359.393311 1133.276489,1360.023560 
	C1118.216797,1362.772217 1103.168091,1365.583252 1088.129639,1368.446045 
	C1084.127686,1369.207764 1082.953979,1367.106323 1083.057617,1363.729858 
	C1083.354004,1354.090454 1083.632080,1344.447998 1084.129761,1334.817749 
	C1084.575439,1326.191650 1085.609741,1317.588501 1085.845215,1308.960571 
	C1086.389160,1289.035156 1087.702393,1269.043823 1086.671631,1249.184692 
	C1085.449951,1225.645996 1082.181763,1202.208252 1079.606323,1178.748291 
	C1078.904175,1172.352173 1079.162109,1171.339233 1085.194092,1170.011230 
	C1097.544800,1167.292236 1109.907227,1164.622559 1122.292603,1162.067871 
	C1127.988770,1160.892944 1129.055420,1161.617065 1129.717896,1167.445557 
	C1130.656250,1175.702148 1131.336914,1183.990723 1131.981567,1192.276978 
	C1132.471436,1198.573120 1132.681763,1204.890869 1133.132690,1211.190674 
	C1133.247559,1212.794678 1133.804932,1214.366943 1134.471802,1217.356079 
	C1137.964844,1212.580688 1140.734009,1208.794800 1143.729004,1204.730225 
z"/>
<path fill="#4B666F" opacity="1.000000" stroke="none" 
	d="
M586.398010,386.428284 
	C593.724060,342.144684 607.601746,300.468903 628.040100,261.027557 
	C640.084229,237.785126 654.316223,215.868118 670.526123,195.318405 
	C696.865845,161.926971 727.504944,133.084564 762.551697,108.881332 
	C796.949829,85.126038 833.990540,66.841286 873.807373,54.240517 
	C905.022339,44.362000 936.938354,38.077366 969.676392,35.845276 
	C1028.076538,31.863544 1084.987061,38.783226 1140.276489,58.227158 
	C1187.266724,74.752403 1229.856323,99.063423 1268.313232,130.687759 
	C1288.920410,147.633621 1307.612671,166.465485 1324.630371,187.006897 
	C1345.746460,212.495178 1363.758911,240.007019 1378.314697,269.708893 
	C1399.223389,312.373901 1412.411255,357.343811 1418.216919,404.544312 
	C1421.073608,427.769135 1421.891602,451.069366 1420.829468,474.340118 
	C1418.936157,515.822754 1411.020142,556.248901 1397.048096,595.441895 
	C1388.583984,619.184998 1378.025269,641.970337 1365.492432,663.785889 
	C1353.969604,683.843201 1341.300171,703.215698 1325.862427,720.546326 
	C1313.811646,734.074585 1302.074341,748.027222 1288.810181,760.290344 
	C1274.226807,773.773010 1258.260010,785.802307 1242.522583,797.982422 
	C1223.894287,812.399841 1203.334351,823.735718 1182.153931,833.929871 
	C1144.666870,851.972595 1105.335693,863.975647 1064.180420,870.211792 
	C1038.414551,874.115967 1012.514038,876.069702 986.542297,874.807312 
	C968.812500,873.945496 950.984558,872.187744 933.547485,868.957642 
	C911.865234,864.941284 890.220825,860.045471 869.137756,853.630798 
	C838.779297,844.394043 810.260254,830.611084 783.114380,814.086731 
	C748.484863,793.007019 717.608154,767.297119 690.228027,737.524414 
	C671.383667,717.033325 655.046326,694.604187 640.733826,670.598816 
	C624.104736,642.708069 610.622314,613.523315 600.719604,582.645386 
	C591.642700,554.342224 585.129333,525.450500 583.025391,495.787598 
	C581.625793,476.054596 580.742004,456.198883 581.268982,436.441895 
	C581.710815,419.878815 584.529480,403.379181 586.398010,386.428284 
M1124.137573,437.397064 
	C1121.507690,427.705566 1115.111328,421.212311 1106.190796,416.043365 
	C1105.365356,418.077332 1104.762939,419.762207 1104.012817,421.378632 
	C1098.699707,432.827850 1089.989136,439.810150 1077.253052,441.008850 
	C1058.165649,442.805359 1044.679688,429.642334 1042.193848,411.626282 
	C1041.640625,407.616425 1040.502563,406.312561 1036.519287,407.683929 
	C1030.437744,409.777588 1024.412231,408.911407 1018.385376,406.979462 
	C997.731750,400.358734 988.750732,373.321106 1004.256897,356.223694 
	C1005.432495,354.927399 1006.266357,353.321136 1007.760193,351.121002 
	C1005.429321,350.674774 1003.761169,350.115448 1002.079529,350.071106 
	C987.367493,349.683044 972.852661,350.926849 958.637390,355.079773 
	C918.803711,366.716919 889.446716,391.169434 871.547729,428.395569 
	C855.914551,460.909271 853.666260,494.920013 864.643311,529.528442 
	C875.562927,563.955933 896.938049,590.488708 928.194519,607.862183 
	C964.676086,628.139954 1003.473877,631.008240 1043.055176,617.078857 
	C1073.383301,606.405823 1096.560303,586.710449 1113.554443,559.582153 
	C1127.087280,537.979187 1133.283447,514.094666 1133.772217,488.908295 
	C1134.109863,471.514008 1130.861694,454.435059 1124.137573,437.397064 
M1234.205933,241.602615 
	C1231.784546,244.115204 1229.115479,246.434753 1226.982788,249.172241 
	C1214.606201,265.057831 1206.880615,283.372925 1201.217529,302.389465 
	C1192.519775,331.596161 1188.431030,361.453125 1190.848755,392.108795 
	C1191.980591,406.462891 1194.530640,420.367615 1198.457397,434.182098 
	C1201.330688,444.290588 1206.654053,451.493774 1216.452515,455.861084 
	C1224.415649,459.410339 1224.583862,461.266174 1223.859985,470.094513 
	C1222.392334,487.992218 1221.245850,505.916595 1220.020996,523.833679 
	C1219.238159,535.283264 1218.594849,546.742493 1217.812866,558.192139 
	C1216.577759,576.274780 1215.256958,594.351624 1214.014282,612.433777 
	C1213.216431,624.041565 1212.987671,635.716187 1211.549683,647.241821 
	C1210.708008,653.988037 1212.805908,659.038086 1217.162720,663.419739 
	C1225.577148,671.882202 1236.305420,672.769592 1246.861450,669.955750 
	C1259.060425,666.704224 1264.071289,658.875488 1263.936646,646.388733 
	C1263.872314,640.415283 1263.309814,634.448303 1263.020874,628.476074 
	C1262.015991,607.710754 1261.034424,586.944397 1260.039795,566.178650 
	C1259.036987,545.245667 1258.015747,524.313721 1257.028076,503.380066 
	C1256.009766,481.796753 1254.967163,460.214355 1254.038086,438.627106 
	C1253.265503,420.675690 1252.663818,402.717041 1251.942993,384.763306 
	C1251.629272,376.951660 1251.238525,369.142700 1250.827881,361.335419 
	C1249.561646,337.255493 1248.224243,313.179199 1247.002808,289.097046 
	C1246.228027,273.821472 1245.651611,258.535919 1244.897705,243.259171 
	C1244.667969,238.602798 1242.677368,237.452118 1238.280151,239.237732 
	C1237.058960,239.733582 1235.960327,240.530731 1234.205933,241.602615 
M782.949768,438.692383 
	C780.702881,431.005707 782.892639,425.468872 790.673401,422.552368 
	C791.579590,422.212677 792.340271,421.461456 793.138855,420.861664 
	C800.232971,415.533234 804.420959,409.424591 804.223145,399.551361 
	C803.572632,367.074768 803.984253,334.577057 803.966003,302.087463 
	C803.962036,294.915405 801.469421,291.303955 796.679932,291.342682 
	C791.870850,291.381561 790.042236,294.257843 790.031128,302.078583 
	C790.000793,323.405029 790.037231,344.731628 789.991943,366.058014 
	C789.977783,372.716644 788.012634,375.714172 783.901428,375.770691 
	C779.868713,375.826111 778.002563,372.844482 777.993774,366.069580 
	C777.966431,345.076355 778.007568,324.082947 777.937073,303.089905 
	C777.928772,300.628662 778.174622,297.590118 776.895752,295.857849 
	C775.354126,293.769653 772.155151,291.459717 769.959656,291.714111 
	C767.848267,291.958832 765.732178,295.131439 764.335388,297.449646 
	C763.510559,298.818756 764.029053,301.026947 764.027710,302.857819 
	C764.014282,320.685425 764.027100,338.513062 764.011841,356.340668 
	C764.008301,360.504852 764.230103,364.701263 763.790649,368.823425 
	C763.401184,372.475952 761.707397,375.846832 757.309631,375.659485 
	C753.036865,375.477539 752.040588,372.198792 752.027344,368.546295 
	C751.992920,359.049561 751.993469,349.552673 751.978027,340.055847 
	C751.956665,326.893677 752.050598,313.729828 751.859009,300.570129 
	C751.770508,294.493469 748.748718,291.117279 744.299866,291.276245 
	C740.102600,291.426178 738.063416,294.208954 738.056213,300.344116 
	C738.015320,335.332825 738.005615,370.321686 738.102966,405.310181 
	C738.109192,407.527374 738.400696,410.442841 739.774536,411.830322 
	C744.499146,416.601807 749.519592,421.172089 754.929260,425.133545 
	C757.511292,427.024353 759.152222,428.693451 758.982544,431.858521 
	C758.670959,437.668793 758.368408,443.479767 758.007874,449.287109 
	C757.276245,461.071960 756.571594,472.859009 755.740540,484.637024 
	C754.559265,501.379730 753.187988,518.109314 752.056946,534.855164 
	C750.880188,552.276794 749.988647,569.717896 748.797791,587.138489 
	C747.346619,608.368286 745.593323,629.578369 744.307190,650.817383 
	C744.142151,653.542297 745.529907,656.666077 746.994263,659.132446 
	C753.632874,670.313232 766.119324,672.503845 777.690796,670.439941 
	C790.257263,668.198669 797.322327,659.419922 796.905762,646.600220 
	C796.522461,634.803406 795.610962,623.022217 794.841370,611.240051 
	C794.213135,601.623840 793.437622,592.017334 792.750549,582.404907 
	C791.482422,564.660767 790.204529,546.917358 788.982483,529.170044 
	C788.183228,517.563599 787.502441,505.949066 786.719849,494.341431 
	C785.490112,476.102234 784.219421,457.865814 782.949768,438.692383 
z"/>
<path fill="#4C6971" opacity="1.000000" stroke="none" 
	d="
M730.002014,1236.935547 
	C729.696167,1229.207520 730.712219,1222.272217 734.073059,1215.684814 
	C739.127991,1205.776855 748.042908,1201.655640 758.171265,1200.364624 
	C764.658691,1199.537720 771.475952,1200.121094 778.004639,1201.055664 
	C789.455933,1202.694824 797.006348,1209.763184 800.432068,1220.576660 
	C803.586975,1230.535278 804.026733,1240.806030 801.118408,1251.056396 
	C798.848877,1259.055420 794.343323,1265.155396 786.465698,1268.203125 
	C771.670044,1273.927002 757.001099,1273.355225 743.301086,1265.313354 
	C732.931458,1259.226562 730.131348,1248.774902 730.002014,1236.935547 
z"/>
<path fill="#4C6971" opacity="1.000000" stroke="none" 
	d="
M743.769165,1381.687744 
	C755.785645,1377.278320 767.460205,1372.989014 779.208191,1368.911621 
	C780.792297,1368.362061 783.039307,1368.286499 784.480591,1368.999512 
	C792.352539,1372.893921 800.224060,1376.837402 807.802795,1381.265259 
	C820.081177,1388.439209 820.986877,1402.878174 807.351318,1412.525391 
	C794.823242,1421.388916 780.482849,1422.550415 765.878296,1421.559814 
	C759.812134,1421.148438 753.594116,1419.961670 747.911926,1417.863525 
	C743.436646,1416.211182 739.129822,1413.171143 735.714355,1409.775513 
	C728.788147,1402.889404 729.650391,1392.749878 737.071716,1386.595703 
	C739.104858,1384.909790 741.319092,1383.442261 743.769165,1381.687744 
z"/>
<path fill="#4C6971" opacity="1.000000" stroke="none" 
	d="
M1874.005005,1259.120850 
	C1874.557129,1244.151367 1877.769775,1230.491455 1888.574951,1220.070679 
	C1902.803833,1206.347778 1937.993042,1205.402100 1948.372925,1231.746460 
	C1957.627197,1255.234375 1957.867920,1279.331055 1949.570190,1303.000610 
	C1944.741699,1316.774292 1934.389404,1325.695557 1919.147705,1326.712646 
	C1905.396851,1327.630249 1894.427490,1322.197632 1886.119263,1310.887939 
	C1877.674927,1299.392944 1874.789429,1286.363525 1874.046631,1272.582642 
	C1873.814087,1268.268188 1874.005737,1263.930908 1874.005005,1259.120850 
z"/>
<path fill="#4C6971" opacity="1.000000" stroke="none" 
	d="
M959.147095,1248.068726 
	C950.147095,1249.172363 941.596924,1250.248657 932.550171,1251.387451 
	C932.340515,1249.344849 931.880859,1247.882080 932.097961,1246.527832 
	C935.038696,1228.188599 942.833801,1212.797852 960.340698,1204.532715 
	C971.116394,1199.445435 982.323914,1199.279175 992.370178,1207.026733 
	C1000.072998,1212.966919 1000.668945,1221.668579 1000.656738,1230.454590 
	C1000.655640,1231.261719 1000.202087,1232.057617 1000.095520,1232.876709 
	C998.790588,1242.906860 998.820312,1243.069946 988.780518,1244.498047 
	C979.080933,1245.877686 969.326965,1246.875610 959.147095,1248.068726 
z"/>
<path fill="#4C6971" opacity="1.000000" stroke="none" 
	d="
M1555.709229,1216.698486 
	C1562.505249,1208.414917 1570.713135,1203.279175 1581.085938,1201.717041 
	C1601.239136,1198.682007 1612.885986,1211.343262 1611.716187,1230.741089 
	C1611.686401,1231.235718 1611.519043,1231.720337 1611.443359,1232.213989 
	C1609.775513,1243.089111 1609.797485,1243.250122 1598.978638,1244.672607 
	C1582.315918,1246.863281 1565.623535,1248.830444 1548.935913,1250.825317 
	C1547.016479,1251.054688 1545.046143,1250.856323 1542.422974,1250.856323 
	C1543.957397,1237.990967 1547.478271,1226.647949 1555.709229,1216.698486 
z"/>
<path fill="#374151" opacity="1.000000" stroke="none" 
	d="
M1124.291016,437.752747 
	C1130.861694,454.435059 1134.109863,471.514008 1133.772217,488.908295 
	C1133.283447,514.094666 1127.087280,537.979187 1113.554443,559.582153 
	C1096.560303,586.710449 1073.383301,606.405823 1043.055176,617.078857 
	C1003.473877,631.008240 964.676086,628.139954 928.194519,607.862183 
	C896.938049,590.488708 875.562927,563.955933 864.643311,529.528442 
	C853.666260,494.920013 855.914551,460.909271 871.547729,428.395569 
	C889.446716,391.169434 918.803711,366.716919 958.637390,355.079773 
	C972.852661,350.926849 987.367493,349.683044 1002.079529,350.071106 
	C1003.761169,350.115448 1005.429321,350.674774 1007.760193,351.121002 
	C1006.266357,353.321136 1005.432495,354.927399 1004.256897,356.223694 
	C988.750732,373.321106 997.731750,400.358734 1018.385376,406.979462 
	C1024.412231,408.911407 1030.437744,409.777588 1036.519287,407.683929 
	C1040.502563,406.312561 1041.640625,407.616425 1042.193848,411.626282 
	C1044.679688,429.642334 1058.165649,442.805359 1077.253052,441.008850 
	C1089.989136,439.810150 1098.699707,432.827850 1104.012817,421.378632 
	C1104.762939,419.762207 1105.365356,418.077332 1106.190796,416.043365 
	C1115.111328,421.212311 1121.507690,427.705566 1124.291016,437.752747 
z"/>
<path fill="#374151" opacity="1.000000" stroke="none" 
	d="
M1234.505615,241.396149 
	C1235.960327,240.530731 1237.058960,239.733582 1238.280151,239.237732 
	C1242.677368,237.452118 1244.667969,238.602798 1244.897705,243.259171 
	C1245.651611,258.535919 1246.228027,273.821472 1247.002808,289.097046 
	C1248.224243,313.179199 1249.561646,337.255493 1250.827881,361.335419 
	C1251.238525,369.142700 1251.629272,376.951660 1251.942993,384.763306 
	C1252.663818,402.717041 1253.265503,420.675690 1254.038086,438.627106 
	C1254.967163,460.214355 1256.009766,481.796753 1257.028076,503.380066 
	C1258.015747,524.313721 1259.036987,545.245667 1260.039795,566.178650 
	C1261.034424,586.944397 1262.015991,607.710754 1263.020874,628.476074 
	C1263.309814,634.448303 1263.872314,640.415283 1263.936646,646.388733 
	C1264.071289,658.875488 1259.060425,666.704224 1246.861450,669.955750 
	C1236.305420,672.769592 1225.577148,671.882202 1217.162720,663.419739 
	C1212.805908,659.038086 1210.708008,653.988037 1211.549683,647.241821 
	C1212.987671,635.716187 1213.216431,624.041565 1214.014282,612.433777 
	C1215.256958,594.351624 1216.577759,576.274780 1217.812866,558.192139 
	C1218.594849,546.742493 1219.238159,535.283264 1220.020996,523.833679 
	C1221.245850,505.916595 1222.392334,487.992218 1223.859985,470.094513 
	C1224.583862,461.266174 1224.415649,459.410339 1216.452515,455.861084 
	C1206.654053,451.493774 1201.330688,444.290588 1198.457397,434.182098 
	C1194.530640,420.367615 1191.980591,406.462891 1190.848755,392.108795 
	C1188.431030,361.453125 1192.519775,331.596161 1201.217529,302.389465 
	C1206.880615,283.372925 1214.606201,265.057831 1226.982788,249.172241 
	C1229.115479,246.434753 1231.784546,244.115204 1234.505615,241.396149 
z"/>
<path fill="#374151" opacity="1.000000" stroke="none" 
	d="
M782.957886,439.160278 
	C784.219421,457.865814 785.490112,476.102234 786.719849,494.341431 
	C787.502441,505.949066 788.183228,517.563599 788.982483,529.170044 
	C790.204529,546.917358 791.482422,564.660767 792.750549,582.404907 
	C793.437622,592.017334 794.213135,601.623840 794.841370,611.240051 
	C795.610962,623.022217 796.522461,634.803406 796.905762,646.600220 
	C797.322327,659.419922 790.257263,668.198669 777.690796,670.439941 
	C766.119324,672.503845 753.632874,670.313232 746.994263,659.132446 
	C745.529907,656.666077 744.142151,653.542297 744.307190,650.817383 
	C745.593323,629.578369 747.346619,608.368286 748.797791,587.138489 
	C749.988647,569.717896 750.880188,552.276794 752.056946,534.855164 
	C753.187988,518.109314 754.559265,501.379730 755.740540,484.637024 
	C756.571594,472.859009 757.276245,461.071960 758.007874,449.287109 
	C758.368408,443.479767 758.670959,437.668793 758.982544,431.858521 
	C759.152222,428.693451 757.511292,427.024353 754.929260,425.133545 
	C749.519592,421.172089 744.499146,416.601807 739.774536,411.830322 
	C738.400696,410.442841 738.109192,407.527374 738.102966,405.310181 
	C738.005615,370.321686 738.015320,335.332825 738.056213,300.344116 
	C738.063416,294.208954 740.102600,291.426178 744.299866,291.276245 
	C748.748718,291.117279 751.770508,294.493469 751.859009,300.570129 
	C752.050598,313.729828 751.956665,326.893677 751.978027,340.055847 
	C751.993469,349.552673 751.992920,359.049561 752.027344,368.546295 
	C752.040588,372.198792 753.036865,375.477539 757.309631,375.659485 
	C761.707397,375.846832 763.401184,372.475952 763.790649,368.823425 
	C764.230103,364.701263 764.008301,360.504852 764.011841,356.340668 
	C764.027100,338.513062 764.014282,320.685425 764.027710,302.857819 
	C764.029053,301.026947 763.510559,298.818756 764.335388,297.449646 
	C765.732178,295.131439 767.848267,291.958832 769.959656,291.714111 
	C772.155151,291.459717 775.354126,293.769653 776.895752,295.857849 
	C778.174622,297.590118 777.928772,300.628662 777.937073,303.089905 
	C778.007568,324.082947 777.966431,345.076355 777.993774,366.069580 
	C778.002563,372.844482 779.868713,375.826111 783.901428,375.770691 
	C788.012634,375.714172 789.977783,372.716644 789.991943,366.058014 
	C790.037231,344.731628 790.000793,323.405029 790.031128,302.078583 
	C790.042236,294.257843 791.870850,291.381561 796.679932,291.342682 
	C801.469421,291.303955 803.962036,294.915405 803.966003,302.087463 
	C803.984253,334.577057 803.572632,367.074768 804.223145,399.551361 
	C804.420959,409.424591 800.232971,415.533234 793.138855,420.861664 
	C792.340271,421.461456 791.579590,422.212677 790.673401,422.552368 
	C782.892639,425.468872 780.702881,431.005707 782.957886,439.160278 
z"/>
</svg>